#!OML:ASF H:\Terrain\Walking\May29\JustinRory\Justin.ASF
:FULLY-SPECIFIED
:DEGREES
1304
root 6.58222 17.9246 6.4475 -176.974 9.71824 181.161
lowerback -0.033895 -0.674873 -0.835067
upperback -0.391751 -0.885972 -1.24901
thorax -0.388812 -0.434088 -0.807352
lowerneck -17.3082 -3.37092 -10.4166
upperneck 21.2384 -1.60406 1.26022
head 9.7419 -1.2759 1.97294
rclavicle 5.14355e-015 1.59028e-015
rhumerus 5.22607 -51.5029 -21.1559
rradius 60.3338
rwrist -49.9532
rhand -15.4414 30.0998
rfingers 7.12502
rthumb 10.739 0.394314
lclavicle 5.14355e-015 1.59028e-015
lhumerus 2.34451 40.9818 35.3114
lradius 46.6266
lwrist 44.7029
lhand 8.74615 34.2164
lfingers 7.12502
lthumb 33.9362 61.0143
rfemur -1.91325 4.27401 11.0389
rtibia 13.8266
rfoot -10.0985 -8.81975
rtoes -5.59368
lfemur -5.83011 2.26131 -24.0321
ltibia 22.6936
lfoot -15.1342 3.51883
ltoes -0.930462
1305
root 6.5728 17.9191 6.45171 -176.954 9.29666 181.123
lowerback -0.00511955 -0.826447 -0.704965
upperback -0.3508 -1.08755 -1.29658
thorax -0.368018 -0.535275 -0.928198
lowerneck -17.1693 -3.4085 -10.4703
upperneck 20.9228 -1.68192 1.26298
head 9.60986 -1.31296 1.96964
rclavicle -3.97072e-014 -1.03368e-014
rhumerus 5.27114 -51.4378 -21.2276
rradius 60.4447
rwrist -49.9241
rhand -15.2389 30.11
rfingers 7.12502
rthumb 10.9343 0.414695
lclavicle -3.97072e-014 -1.03368e-014
lhumerus 1.96258 40.6646 35.523
lradius 46.9395
lwrist 44.7436
lhand 9.36152 34.048
lfingers 7.12502
lthumb 34.5205 60.7147
rfemur -1.84085 3.82041 10.9787
rtibia 13.7923
rfoot -10.1407 -8.78653
rtoes -5.99097
lfemur -5.90147 2.10075 -24.0815
ltibia 22.6708
lfoot -15.2437 3.32241
ltoes -4.10535
1306
root 6.57576 17.9188 6.45569 -176.916 9.38799 181.164
lowerback -0.00205947 -0.79438 -0.75755
upperback -0.339149 -1.04537 -1.25982
thorax -0.355708 -0.514276 -0.861312
lowerneck -17.001 -3.43184 -10.5093
upperneck 20.6682 -1.74082 1.26608
head 9.49321 -1.33953 1.9679
rclavicle -8.15017e-015 -7.95139e-016
rhumerus 5.0756 -51.1694 -21.0763
rradius 60.6242
rwrist -50.0359
rhand -15.2541 30.1418
rfingers 7.12502
rthumb 10.9197 0.445723
lclavicle -8.15017e-015 -7.95139e-016
lhumerus 1.51588 40.4416 35.8275
lradius 47.3774
lwrist 44.715
lhand 9.74766 34.143
lfingers 7.12502
lthumb 34.887 60.7254
rfemur -1.91808 3.82468 11.0391
rtibia 13.7865
rfoot -9.96004 -8.77016
rtoes -5.66918
lfemur -5.91856 2.0805 -24.0559
ltibia 22.6279
lfoot -15.4207 3.52792
ltoes -7.04516
1307
root 6.58711 17.9302 6.46108 -176.866 9.87493 181.152
lowerback -0.0553912 -0.620388 -1.02576
upperback -0.302575 -0.811943 -1.21983
thorax -0.281833 -0.396804 -0.671754
lowerneck -17.0309 -3.44584 -10.4709
upperneck 20.5863 -1.75989 1.20631
head 9.47014 -1.35181 1.93707
rclavicle 1.82385e-014 3.89618e-014
rhumerus 4.82198 -50.9353 -20.9152
rradius 60.8179
rwrist -50.0974
rhand -15.5495 30.0549
rfingers 7.12502
rthumb 10.6347 0.344058
lclavicle 1.82385e-014 3.89618e-014
lhumerus 1.00434 40.089 36.0808
lradius 47.9694
lwrist 44.6854
lhand 9.5894 34.2177
lfingers 7.12502
lthumb 34.7368 60.8348
rfemur -2.11495 4.18241 11.0393
rtibia 13.7884
rfoot -9.93773 -8.68484
rtoes -5.36136
lfemur -5.87508 2.33457 -24.0593
ltibia 22.5545
lfoot -15.4725 3.7001
ltoes -6.60275
1308
root 6.59048 17.9395 6.46622 -176.848 10.0684 181.072
lowerback -0.0560363 -0.503606 -1.1698
upperback -0.188447 -0.651948 -1.31037
thorax -0.163437 -0.315937 -0.684681
lowerneck -17.4342 -3.51648 -10.1775
upperneck 20.692 -1.86013 1.0449
head 9.58135 -1.4011 1.81618
rclavicle -1.65985e-014 -2.38542e-015
rhumerus 4.64417 -51.0662 -20.948
rradius 60.8754
rwrist -49.8068
rhand -15.9329 30.1756
rfingers 7.12502
rthumb 10.2649 0.446095
lclavicle -1.65985e-014 -2.38542e-015
lhumerus 0.830096 39.5107 36.3377
lradius 48.3657
lwrist 45.0029
lhand 9.47344 34.0584
lfingers 7.12502
lthumb 34.6268 60.7008
rfemur -2.20323 4.20828 10.9346
rtibia 13.781
rfoot -9.97435 -8.47243
rtoes -5.49366
lfemur -5.80928 2.37474 -24.1534
ltibia 22.4539
lfoot -15.4591 3.81028
ltoes -6.67646
1309
root 6.58924 17.9445 6.47068 -176.817 10.1644 181.041
lowerback -0.0263712 -0.437205 -1.17873
upperback -0.115819 -0.560326 -1.40772
thorax -0.106306 -0.269353 -0.779511
lowerneck -17.7888 -3.58516 -9.93806
upperneck 20.8543 -1.96081 0.948253
head 9.70481 -1.44729 1.72694
rclavicle 1.98785e-016 -3.26007e-014
rhumerus 4.52222 -51.122 -21.0583
rradius 60.8657
rwrist -49.6334
rhand -16.1943 30.6334
rfingers 7.12502
rthumb 10.0127 0.891585
lclavicle 1.98785e-016 -3.26007e-014
lhumerus 0.630171 38.9232 36.5239
lradius 48.6258
lwrist 45.3874
lhand 9.73244 33.9089
lfingers 7.12502
lthumb 34.8725 60.4946
rfemur -2.31534 4.10903 10.8801
rtibia 13.8236
rfoot -9.87006 -8.29525
rtoes -6.06433
lfemur -5.78418 2.24013 -24.2221
ltibia 22.3407
lfoot -15.367 4.05272
ltoes -6.98694
1310
root 6.58933 17.9477 6.4742 -176.784 10.3264 181.059
lowerback -0.0419816 -0.424604 -1.20764
upperback -0.0760626 -0.54232 -1.40907
thorax -0.056526 -0.260456 -0.765012
lowerneck -17.8999 -3.57325 -9.86224
upperneck 20.9332 -1.922 0.840931
head 9.74941 -1.43683 1.68177
rclavicle 8.44835e-016 1.74931e-014
rhumerus 4.47385 -50.9171 -21.196
rradius 60.9265
rwrist -49.7054
rhand -16.2463 30.8366
rfingers 7.12502
rthumb 9.96258 1.09237
lclavicle 8.44835e-016 1.74931e-014
lhumerus 0.181816 38.8003 36.6857
lradius 48.9761
lwrist 45.1357
lhand 9.49704 33.8696
lfingers 7.12502
lthumb 34.6491 60.5069
rfemur -2.46359 4.06294 10.8863
rtibia 13.9094
rfoot -9.75155 -8.15452
rtoes -6.70542
lfemur -5.76873 2.36232 -24.2134
ltibia 22.2521
lfoot -15.3169 4.10236
ltoes -7.45358
1311
root 6.59187 17.9454 6.47698 -176.738 10.4869 181.022
lowerback -0.125813 -0.398043 -1.30197
upperback 0.0145207 -0.501252 -1.45605
thorax 0.0837581 -0.239629 -0.761273
lowerneck -18.0405 -3.56329 -9.66224
upperneck 20.9008 -1.92292 0.699918
head 9.75916 -1.43947 1.59776
rclavicle 1.32689e-014 -1.35174e-014
rhumerus 4.22826 -50.7315 -21.2743
rradius 61.0826
rwrist -49.5866
rhand -16.5466 30.6437
rfingers 7.12502
rthumb 9.67277 0.885784
lclavicle 1.32689e-014 -1.35174e-014
lhumerus -0.119269 38.8473 37.0138
lradius 49.413
lwrist 44.5463
lhand 9.29206 33.9503
lfingers 7.12502
lthumb 34.4546 60.632
rfemur -2.57234 4.03552 10.8268
rtibia 13.8878
rfoot -9.66411 -8.01227
rtoes -7.15889
lfemur -5.8544 2.54041 -24.2556
ltibia 22.2471
lfoot -15.2613 4.14704
ltoes -8.10268
1312
root 6.59506 17.9457 6.48137 -176.615 10.5519 181.089
lowerback -0.192354 -0.471681 -1.32392
upperback 0.0602594 -0.599054 -1.38139
thorax 0.168499 -0.289774 -0.673574
lowerneck -18.3489 -3.48233 -9.89071
upperneck 21.0035 -1.74799 0.861289
head 9.84736 -1.36229 1.71379
rclavicle -2.22639e-014 -1.59028e-015
rhumerus 4.46877 -50.304 -21.6536
rradius 61.1572
rwrist -49.3043
rhand -16.8353 30.4582
rfingers 7.12502
rthumb 9.39425 0.687572
lclavicle -2.22639e-014 -1.59028e-015
lhumerus -0.889829 38.7475 37.1354
lradius 50.0081
lwrist 44.3886
lhand 9.61846 34.1858
lfingers 7.12502
lthumb 34.7644 60.7966
rfemur -2.64951 4.06776 10.9016
rtibia 13.7165
rfoot -9.38064 -7.9991
rtoes -6.61937
lfemur -6.04209 2.54993 -24.1758
ltibia 22.3203
lfoot -15.201 4.18408
ltoes -7.77447
